<svg width="48" height="34" viewBox="0 0 48 34" fill="none" xmlns="http://www.w3.org/2000/svg">
<path d="M46.1896 13.9808C47.2418 14.6617 47.7679 15.5592 47.7679 16.6733C47.7679 17.7874 47.2418 18.7158 46.1896 19.4586C45.4468 19.8918 44.4874 20.2323 43.3114 20.4799C42.0116 20.7893 39.6286 20.9441 36.1625 20.9441L26.7853 32.5495C26.352 33.0447 25.795 33.2922 25.1141 33.2922C25.0522 33.2922 24.9903 33.2922 24.9284 33.2922L23.3501 33.1994C22.793 33.1375 22.3598 32.8744 22.0503 32.4102C21.7408 31.946 21.6789 31.4663 21.8646 30.9712L25.0213 20.9441H20.7505L16.9439 25.4934C16.4488 26.1124 15.7988 26.329 14.9942 26.1433L14.3443 26.0505C13.8491 25.9267 13.4623 25.6481 13.1838 25.2149C12.9052 24.7816 12.8279 24.3174 12.9517 23.8222C14.0658 19.9228 14.7157 17.5398 14.9014 16.6733C14.7157 15.8686 14.0658 13.4857 12.9517 9.52435C12.8279 9.02918 12.9052 8.56496 13.1838 8.13169C13.4623 7.69843 13.8491 7.4199 14.3443 7.29611L14.9942 7.20326C15.7988 7.07947 16.4488 7.32705 16.9439 7.94601H17.0368L20.7505 12.4025H25.0213L21.8646 2.46825C21.6789 1.91119 21.7408 1.40055 22.0503 0.936337C22.3598 0.472122 22.793 0.209064 23.3501 0.147171L24.9284 0.0543251C25.7331 -0.00756836 26.352 0.270962 26.7853 0.889915L36.1625 12.4025C39.6286 12.4644 42.0116 12.6191 43.3114 12.8667C44.4874 13.1143 45.4468 13.4857 46.1896 13.9808ZM44.9826 16.7661V16.6733C44.9826 16.24 44.2399 15.8686 42.7544 15.5592C41.5783 15.3735 39.2882 15.2497 35.884 15.1878C35.2031 15.1878 34.646 14.9093 34.2128 14.3522L24.9284 2.93247L28.178 12.9595C28.3636 13.5166 28.2863 14.0272 27.9458 14.4915C27.6054 14.9557 27.1567 15.1878 26.5996 15.1878H20.5648C19.884 15.1878 19.2959 14.9093 18.8008 14.3522L16.3869 11.5669C17.2534 14.5998 17.6867 16.3019 17.6867 16.6733C17.6867 17.0447 17.2534 18.7468 16.3869 21.7797L18.8008 18.9944C19.2959 18.4373 19.884 18.1588 20.5648 18.1588H26.5996C27.1567 18.1588 27.6054 18.3909 27.9458 18.8551C28.2863 19.3193 28.3636 19.83 28.178 20.387L24.9284 30.4141L34.2128 18.9944C34.646 18.4373 35.2031 18.1588 35.884 18.1588C39.2882 18.1588 41.5783 18.035 42.7544 17.7874C44.2399 17.4779 44.9826 17.1375 44.9826 16.7661ZM9.51645 9.80288C9.88782 9.80288 10.2128 9.94214 10.4913 10.2207C10.7698 10.4992 10.9091 10.8396 10.9091 11.2419C10.9091 11.6443 10.7698 11.9847 10.4913 12.2632C10.2128 12.5418 9.88782 12.681 9.51645 12.681H5.89556C5.52419 12.681 5.19923 12.5418 4.9207 12.2632C4.64217 11.9847 4.50291 11.6443 4.50291 11.2419C4.50291 10.8396 4.64217 10.4992 4.9207 10.2207C5.19923 9.94214 5.52419 9.80288 5.89556 9.80288H9.51645ZM9.51645 20.7584C9.88782 20.7584 10.2128 20.8977 10.4913 21.1762C10.7698 21.4547 10.9091 21.7797 10.9091 22.151C10.9091 22.5224 10.7698 22.8474 10.4913 23.1259C10.2128 23.4044 9.88782 23.5437 9.51645 23.5437H5.89556C5.64798 23.5437 5.41587 23.4818 5.19923 23.358C4.9826 23.2342 4.81239 23.064 4.6886 22.8474C4.56481 22.6307 4.50291 22.3986 4.50291 22.151C4.50291 21.7797 4.64217 21.4547 4.9207 21.1762C5.19923 20.8977 5.52419 20.7584 5.89556 20.7584H9.51645ZM9.51645 15.2806C9.88782 15.2806 10.2128 15.4199 10.4913 15.6984C10.7698 15.977 10.9091 16.3019 10.9091 16.6733C10.9091 17.0447 10.7698 17.3696 10.4913 17.6481C10.2128 17.9267 9.88782 18.0659 9.51645 18.0659H1.62477C1.25339 18.0659 0.928442 17.9267 0.649912 17.6481C0.371382 17.3696 0.232117 17.0447 0.232117 16.6733C0.232117 16.3019 0.371382 15.977 0.649912 15.6984C0.928442 15.4199 1.25339 15.2806 1.62477 15.2806H9.51645Z" fill="#FF8B00"/>
</svg>
