<svg width="48" height="42" viewBox="0 0 48 42" fill="none" xmlns="http://www.w3.org/2000/svg">
<path d="M32.5313 20.1141C33.1502 20.3617 33.4597 20.8259 33.4597 21.5068C33.4597 21.6925 33.4288 21.8472 33.3669 21.971C33.2431 22.3424 32.9955 22.6209 32.6241 22.8066C32.2527 22.9923 31.8814 22.9923 31.51 22.8066L30.6744 22.528L32.0671 26.5203C32.129 26.706 32.1599 26.8607 32.1599 26.9845C32.1599 27.6654 31.8504 28.1296 31.2315 28.3772C31.0458 28.4391 30.8601 28.4545 30.6744 28.4236C30.4887 28.3927 30.3185 28.3462 30.1638 28.2843C30.009 28.2224 29.8543 28.1141 29.6996 27.9594C29.5448 27.8046 29.4365 27.6654 29.3746 27.5416L27.8891 23.4565L27.4249 24.2921C26.9297 25.1586 26.2798 25.3443 25.4752 24.8491C24.98 24.6016 24.7324 24.1992 24.7324 23.6422C24.7324 23.3946 24.7943 23.147 24.9181 22.8994L26.9607 19.3714C27.2083 18.8762 27.6106 18.6286 28.1676 18.6286C28.3533 18.6286 28.539 18.6596 28.7247 18.7215L32.5313 20.1141ZM47.0148 25.3133C47.0148 25.3133 47.1077 25.3598 47.2934 25.4526C47.4791 25.5455 47.6338 25.7776 47.7576 26.1489C47.8814 26.5203 47.8659 26.8762 47.7112 27.2166C47.5564 27.5571 47.2934 27.8201 46.922 28.0058L26.0322 35.5261C26.156 36.764 25.893 37.8936 25.2431 38.9149C24.5932 39.9362 23.6802 40.6634 22.5042 41.0967C21.8852 41.2824 21.2663 41.3752 20.6473 41.3752C19.8427 41.3752 19.0999 41.2205 18.4191 40.911C17.0574 40.2302 16.1135 39.1934 15.5874 37.8008C15.0613 36.4081 15.1386 35.031 15.8195 33.6692C16.1909 32.8027 16.7789 32.0909 17.5835 31.5339C17.5216 31.4101 17.4597 31.2863 17.3978 31.1625L7.46358 3.86654L2.17151 5.81625C1.80014 5.94004 1.42876 5.9091 1.05739 5.72341C0.686017 5.53772 0.438435 5.25919 0.314644 4.88782C0.190853 4.51645 0.206327 4.16055 0.361066 3.82012C0.515805 3.47969 0.778861 3.21664 1.15023 3.03095L7.83495 0.617023C8.20633 0.493233 8.56223 0.524181 8.90265 0.709869C9.24308 0.895554 9.50613 1.17408 9.69182 1.54546L13.4056 11.8511C13.5912 11.7892 13.8079 11.6963 14.0555 11.5725L32.4384 4.88782C33.305 4.57834 34.187 4.62476 35.0845 5.02708C35.982 5.42941 36.5854 6.09478 36.8949 7.02321L43.5796 25.4062C43.7034 25.5919 43.7344 25.8085 43.6725 26.0561L45.9007 25.2205C46.2721 25.0967 46.6435 25.1277 47.0148 25.3133ZM26.8678 13.1509L25.8466 10.3656L22.5042 11.5725L23.5255 14.3578L26.8678 13.1509ZM14.6125 15.1934L20.0903 30.234C20.1522 30.3578 20.1831 30.4816 20.1831 30.6054C22.2257 30.4197 23.8659 31.1625 25.1038 32.8337L41.2585 26.9845C41.1348 26.7988 41.011 26.6132 40.8872 26.4275L34.2025 8.04449C34.1406 7.8588 34.0322 7.71954 33.8775 7.6267C33.7228 7.53385 33.5526 7.51838 33.3669 7.58027L28.539 9.3443L30.1174 13.5222C30.1792 13.7079 30.1947 13.8936 30.1638 14.0793C30.1328 14.265 30.0864 14.4352 30.0245 14.5899C29.9626 14.7447 29.8543 14.8994 29.6996 15.0542C29.5448 15.2089 29.3746 15.3172 29.1889 15.3791L23.1541 17.6074C23.0303 17.6692 22.8756 17.7002 22.6899 17.7002C22.009 17.7002 21.5448 17.3598 21.2972 16.6789L19.8117 12.5938L14.9839 14.265C14.7982 14.3269 14.6744 14.4507 14.6125 14.6364C14.5506 14.8221 14.5506 15.0077 14.6125 15.1934ZM19.6261 38.265C19.6261 38.265 19.7808 38.3346 20.0903 38.4739C20.3997 38.6132 20.8794 38.5745 21.5293 38.3578C22.1792 38.1412 22.6589 37.7079 22.9684 37.058C23.2779 36.4081 23.3088 35.7737 23.0613 35.1547C22.628 34.0406 21.8233 33.4836 20.6473 33.4836C20.3379 33.4836 20.0593 33.5145 19.8117 33.5764C19.1309 33.824 18.6512 34.2727 18.3727 34.9226C18.0941 35.5725 18.0787 36.2224 18.3262 36.8723C18.5738 37.5222 19.0071 37.9865 19.6261 38.265Z" fill="#FF8B00"/>
</svg>
