<svg width="45" height="49" viewBox="0 0 45 49" fill="none" xmlns="http://www.w3.org/2000/svg">
<path d="M44.0542 17.3289C44.4255 17.6384 44.6112 18.0098 44.6112 18.443V46.6674C44.6112 47.0388 44.472 47.3637 44.1934 47.6423C43.9149 47.9208 43.559 48.0601 43.1257 48.0601H1.71761C1.28434 48.0601 0.928442 47.9208 0.649912 47.6423C0.371382 47.3637 0.232117 47.0388 0.232117 46.6674V18.443C0.232117 18.0098 0.417803 17.6384 0.789177 17.3289L21.5861 0.802807C22.1431 0.369538 22.7311 0.369538 23.3501 0.802807L44.0542 17.3289ZM35.1412 45.1819V22.8067H9.70214V45.1819H12.9517V38.3115C12.9517 37.8782 13.0909 37.5223 13.3694 37.2438C13.648 36.9653 13.9729 36.826 14.3443 36.826H16.9439V29.9556C16.9439 29.5223 17.0832 29.1664 17.3617 28.8879C17.6402 28.6094 17.9961 28.4701 18.4294 28.4701H26.4139C26.8472 28.4701 27.2031 28.6094 27.4816 28.8879C27.7602 29.1664 27.8994 29.5223 27.8994 29.9556V36.826H30.499C30.8704 36.826 31.1954 36.9653 31.4739 37.2438C31.7524 37.5223 31.8917 37.8782 31.8917 38.3115V45.1819H35.1412ZM19.8221 36.826H25.0213V31.3483H19.8221V36.826ZM15.8298 39.7042V45.1819H21.029V39.7042H15.8298ZM23.8143 45.1819H29.1064V39.7042H23.8143V45.1819ZM41.7331 45.1819V19.1858L22.4217 3.77379L3.11026 19.1858V45.1819H6.82399V21.3212C6.82399 20.9498 6.96326 20.6249 7.24179 20.3463C7.52032 20.0678 7.87622 19.9285 8.30949 19.9285H36.6267C36.9981 19.9285 37.323 20.0678 37.6016 20.3463C37.8801 20.6249 38.0193 20.9498 38.0193 21.3212V45.1819H41.7331ZM16.1083 11.944C16.1083 11.5107 16.2476 11.1548 16.5261 10.8763C16.8047 10.5978 17.1296 10.4585 17.501 10.4585H27.3424C27.5899 10.4585 27.8221 10.5359 28.0387 10.6906C28.2553 10.8454 28.4255 11.031 28.5493 11.2477C28.6731 11.4643 28.735 11.6964 28.735 11.944V16.2148C28.735 16.5862 28.5958 16.9111 28.3172 17.1897C28.0387 17.4682 27.7137 17.6074 27.3424 17.6074H17.501C17.1296 17.6074 16.8047 17.4682 16.5261 17.1897C16.2476 16.9111 16.1083 16.5862 16.1083 16.2148V11.944ZM18.9865 13.3367V14.8221H25.8569V13.3367H18.9865Z" fill="#FF8B00"/>
</svg>
