<svg id="Слой_1" data-name="Слой 1" xmlns="http://www.w3.org/2000/svg" viewBox="0 0 250 150"><defs><style>.cls-1{fill:#e5c397;}.cls-2{fill:#fff;}</style></defs><rect class="cls-1" x="-0.18" width="250" height="150"/><polyline class="cls-2" points="129.42 101.94 156.14 101.94 156.14 95.38 129.42 95.38"/><rect class="cls-2" x="108.65" y="95.38" width="8.24" height="6.57"/><polygon class="cls-2" points="108.01 95.38 103.06 95.38 103.06 41.31 94.82 41.31 94.82 101.94 108.01 101.94 108.01 95.38"/><rect class="cls-2" x="117.53" y="95.38" width="12.83" height="6.57"/><path class="cls-2" d="M145.2,94.77,128.84,65.58,152,32.78H141.73l-19.52,29c-1.61,2.52-3.32,5.28-5,8.26h-.28V32.78h-8.25v77.29h8.25V80.6L123,72.12l12.56,22.65Z"/><polygon class="cls-2" points="145.54 95.38 135.86 95.38 139.49 101.92 149.21 101.92 145.54 95.38"/><polygon class="cls-2" points="149.54 102.53 139.83 102.53 144.01 110.07 153.77 110.07 149.54 102.53"/><rect class="cls-1" x="133.57" y="93.65" width="14.16" height="1.26"/><rect class="cls-1" x="137.99" y="102.31" width="14.16" height="1.29"/><rect class="cls-1" x="117.42" y="93.16" width="1.1" height="14.16"/><rect class="cls-1" x="107.12" y="91.41" width="0.99" height="14.16"/></svg>