<svg width="42" height="48" viewBox="0 0 42 48" fill="none" xmlns="http://www.w3.org/2000/svg">
<path d="M29.1581 0.0119629C30.8144 0.0119629 32.3613 0.230713 33.7988 0.668213C35.2675 1.13696 36.5409 1.75415 37.6191 2.51978C38.6972 3.2854 39.5644 4.19946 40.2206 5.26196C40.8456 6.29321 41.1581 7.40259 41.1581 8.59009V32.5901C41.1581 33.7463 40.8613 34.8401 40.2675 35.8713C39.6425 36.8713 38.8144 37.762 37.7831 38.5432C36.7519 39.3245 35.5331 39.9338 34.1269 40.3713C32.7206 40.8401 31.205 41.0901 29.58 41.1213L35.2988 46.5588C35.58 46.8088 35.6503 47.1135 35.5097 47.4729C35.3691 47.8323 35.1113 48.012 34.7363 48.012H6.42375C6.04875 48.012 5.79094 47.8323 5.65031 47.4729C5.50969 47.1135 5.58 46.8088 5.86125 46.5588L11.5331 41.1213C9.93938 41.0901 8.43938 40.8401 7.03313 40.3713C5.62688 39.9338 4.40031 39.3245 3.35344 38.5432C2.30656 37.762 1.48625 36.8713 0.892502 35.8713C0.298752 34.8401 0.00187683 33.7463 0.00187683 32.5901V8.59009C0.00187683 7.40259 0.314377 6.29321 0.939377 5.26196C1.56438 4.19946 2.42375 3.2854 3.5175 2.51978C4.61125 1.75415 5.87688 1.13696 7.31438 0.668213C8.78313 0.230713 10.3456 0.0119629 12.0019 0.0119629H29.1581ZM20.58 36.012C21.9863 36.012 23.1972 35.512 24.2128 34.512C25.2284 33.512 25.7363 32.2932 25.7363 30.8557C25.7363 29.4495 25.2284 28.2463 24.2128 27.2463C23.1972 26.2463 21.9863 25.7463 20.58 25.7463C19.1425 25.7463 17.9238 26.2463 16.9238 27.2463C15.9238 28.2463 15.4238 29.4495 15.4238 30.8557C15.4238 32.2932 15.9238 33.512 16.9238 34.512C17.9238 35.512 19.1425 36.012 20.58 36.012ZM36.0019 20.5901V6.85571H5.15813V20.5901H36.0019Z" fill="#FF8B00"/>
</svg>
