<svg width="48" height="38" viewBox="0 0 48 38" fill="none" xmlns="http://www.w3.org/2000/svg">
<path d="M45.5397 33.1123C46.3443 32.5552 47.0097 32.679 47.5358 33.4837C48.0619 34.2883 47.9226 34.9382 47.118 35.4334C45.6325 36.4856 44.0851 37.0117 42.4758 37.0117C40.7428 37.0117 39.2882 36.3309 38.1122 34.9692C36.9362 36.3309 35.4507 37.0117 33.6557 37.0117C31.8607 37.0117 30.3752 36.2999 29.1992 34.8763C28.0232 36.1142 26.5841 36.7332 24.882 36.7332C23.1799 36.7332 21.7718 36.1142 20.6576 34.8763C19.4816 36.2999 17.9652 37.0117 16.1083 37.0117C14.5609 37.0117 13.0135 36.4856 11.4662 35.4334C10.6615 34.9382 10.5223 34.2883 11.0484 33.4837C11.5745 32.679 12.2399 32.5552 13.0445 33.1123C13.7253 33.5456 14.3443 33.8241 14.9014 33.9479L12.766 21.414C12.7041 20.9808 12.8124 20.5939 13.0909 20.2535C13.3694 19.9131 13.7563 19.7429 14.2515 19.7429H17.9652V13.2438C17.9652 12.8106 18.1045 12.4547 18.383 12.1761C18.6615 11.8976 19.0174 11.7583 19.4507 11.7583H21.7718V6.37342C21.7718 6.00205 21.911 5.6771 22.1896 5.39857C22.4681 5.12004 22.793 4.98077 23.1644 4.98077H25.764V1.91694C25.764 1.66936 25.8414 1.43725 25.9961 1.22062C26.1509 1.00398 26.3366 0.833771 26.5532 0.70998C26.7698 0.586189 27.0019 0.524292 27.2495 0.524292C27.6209 0.524292 27.9458 0.663559 28.2244 0.942089C28.5029 1.22062 28.6422 1.54557 28.6422 1.91694V4.98077H31.2418C31.4894 4.98077 31.7215 5.04267 31.9381 5.16646C32.1547 5.29025 32.325 5.46046 32.4487 5.6771C32.5725 5.89373 32.6344 6.12584 32.6344 6.37342V11.7583H36.5339C36.7814 11.7583 37.0135 11.8202 37.2302 11.944C37.4468 12.0678 37.617 12.238 37.7408 12.4547C37.8646 12.6713 37.9265 12.9344 37.9265 13.2438V19.7429H46.2824C46.7776 19.7429 47.1644 19.9285 47.4429 20.2999C47.7215 20.6713 47.7988 21.1046 47.6751 21.5997L43.6828 34.0407C44.2399 33.855 44.8588 33.5456 45.5397 33.1123ZM24.6499 7.76607V11.7583H29.8491V7.76607H24.6499ZM20.8433 14.6365V19.7429H35.0484V14.6365H20.8433ZM39.5048 31.1626C39.5048 32.2148 39.9381 33.0504 40.8046 33.6694L44.3327 22.5282H15.9226L17.6867 33.6694C18.6151 33.1123 19.0793 32.2767 19.0793 31.1626V30.8841C19.0793 30.5127 19.2186 30.1877 19.4971 29.9092C19.7756 29.6307 20.1161 29.4914 20.5184 29.4914C20.9207 29.4914 21.2611 29.6307 21.5397 29.9092C21.8182 30.1877 21.9575 30.5127 21.9575 30.8841C21.9575 31.7506 22.2515 32.4779 22.8395 33.0659C23.4275 33.6539 24.1238 33.9479 24.9284 33.9479C25.4236 33.9479 25.9033 33.8086 26.3675 33.5301C26.8317 33.2516 27.2031 32.8802 27.4816 32.416C27.7602 31.9518 27.8994 31.4411 27.8994 30.8841C27.8994 30.5127 28.0387 30.1877 28.3172 29.9092C28.5958 29.6307 28.9207 29.4914 29.2921 29.4914C29.6635 29.4914 29.9884 29.6307 30.2669 29.9092C30.5455 30.1877 30.6847 30.5127 30.6847 30.8841V31.1626C30.6847 31.7196 30.824 32.2303 31.1025 32.6945C31.3811 33.1587 31.7524 33.5146 32.2166 33.7622C32.6809 34.0098 33.1605 34.1336 33.6557 34.1336C34.5223 34.1336 35.2341 33.8396 35.7911 33.2516C36.3482 32.6636 36.6267 31.9672 36.6267 31.1626C36.6267 30.7912 36.766 30.4663 37.0445 30.1877C37.323 29.9092 37.6634 29.7699 38.0658 29.7699C38.4681 29.7699 38.8085 29.9092 39.087 30.1877C39.3656 30.4663 39.5048 30.7912 39.5048 31.1626ZM37.1838 24.7564C37.4313 24.7564 37.6634 24.8183 37.8801 24.9421C38.0967 25.0659 38.2669 25.2361 38.3907 25.4527C38.5145 25.6694 38.5764 25.9015 38.5764 26.149C38.5764 26.5823 38.4371 26.9382 38.1586 27.2167C37.8801 27.4953 37.5551 27.6345 37.1838 27.6345H35.2341C34.8627 27.6345 34.5377 27.4953 34.2592 27.2167C33.9807 26.9382 33.8414 26.5978 33.8414 26.1955C33.8414 25.7932 33.9807 25.4527 34.2592 25.1742C34.5377 24.8957 34.8627 24.7564 35.2341 24.7564H37.1838ZM23.9072 24.7564C24.2785 24.7564 24.6035 24.8957 24.882 25.1742C25.1605 25.4527 25.2998 25.7932 25.2998 26.1955C25.2998 26.5978 25.1605 26.9382 24.882 27.2167C24.6035 27.4953 24.2785 27.6345 23.9072 27.6345H22.0503C21.617 27.6345 21.2611 27.4953 20.9826 27.2167C20.7041 26.9382 20.5648 26.5978 20.5648 26.1955C20.5648 25.7932 20.7041 25.4527 20.9826 25.1742C21.2611 24.8957 21.617 24.7564 22.0503 24.7564H23.9072ZM30.499 24.7564C30.9323 24.7564 31.2882 24.8957 31.5667 25.1742C31.8453 25.4527 31.9845 25.7932 31.9845 26.1955C31.9845 26.5978 31.8453 26.9382 31.5667 27.2167C31.2882 27.4953 30.9323 27.6345 30.499 27.6345H28.6422C28.2708 27.6345 27.9458 27.4953 27.6673 27.2167C27.3888 26.9382 27.2495 26.5978 27.2495 26.1955C27.2495 25.7932 27.3888 25.4527 27.6673 25.1742C27.9458 24.8957 28.2708 24.7564 28.6422 24.7564H30.499ZM8.21664 21.2284C8.58802 21.2284 8.91297 21.3676 9.1915 21.6461C9.47003 21.9247 9.60929 22.2651 9.60929 22.6674C9.60929 23.0697 9.47003 23.4102 9.1915 23.6887C8.91297 23.9672 8.58802 24.1065 8.21664 24.1065H5.15281C4.78144 24.1065 4.45649 23.9672 4.17796 23.6887C3.89943 23.4102 3.76016 23.0697 3.76016 22.6674C3.76016 22.2651 3.89943 21.9247 4.17796 21.6461C4.45649 21.3676 4.78144 21.2284 5.15281 21.2284H8.21664ZM8.21664 30.2342C8.46422 30.2342 8.69633 30.2961 8.91297 30.4198C9.1296 30.5436 9.29981 30.7138 9.42361 30.9305C9.5474 31.1471 9.60929 31.3792 9.60929 31.6268C9.60929 32.0601 9.47003 32.416 9.1915 32.6945C8.91297 32.973 8.58802 33.1123 8.21664 33.1123H5.15281C4.78144 33.1123 4.45649 32.973 4.17796 32.6945C3.89943 32.416 3.76016 32.0755 3.76016 31.6732C3.76016 31.2709 3.89943 30.9305 4.17796 30.652C4.45649 30.3734 4.78144 30.2342 5.15281 30.2342H8.21664ZM8.21664 25.7777C8.58802 25.7777 8.91297 25.9169 9.1915 26.1955C9.47003 26.474 9.60929 26.799 9.60929 27.1703C9.60929 27.5417 9.47003 27.8667 9.1915 28.1452C8.91297 28.4237 8.58802 28.563 8.21664 28.563H1.62477C1.25339 28.563 0.928442 28.4237 0.649912 28.1452C0.371382 27.8667 0.232117 27.5417 0.232117 27.1703C0.232117 26.799 0.371382 26.474 0.649912 26.1955C0.928442 25.9169 1.25339 25.7777 1.62477 25.7777H8.21664Z" fill="#FF8B00"/>
</svg>
