<svg width="48" height="33" viewBox="0 0 48 33" fill="none" xmlns="http://www.w3.org/2000/svg">
<path d="M47.5822 12.031C47.7679 12.2786 47.8607 12.5571 47.8607 12.8666V26.236C47.8607 27.1644 47.3965 27.6287 46.4681 27.6287H43.59C43.3424 28.9285 42.7079 30.0116 41.6867 30.8782C40.6654 31.7447 39.5048 32.178 38.205 32.178C37.7718 32.178 37.3385 32.1316 36.9052 32.0387C36.472 31.9459 36.0851 31.7911 35.7447 31.5745C35.4043 31.3579 35.0638 31.1258 34.7234 30.8782C34.383 30.6306 34.089 30.3366 33.8414 29.9962C33.5938 29.6557 33.3772 29.2844 33.1915 28.882C33.0058 28.4797 32.882 28.0619 32.8201 27.6287H15.1799C14.9323 28.9285 14.2979 30.0116 13.2766 30.8782C12.2553 31.7447 11.0948 32.178 9.79498 32.178C9.17602 32.178 8.55707 32.0542 7.93811 31.8066C7.31916 31.559 6.7621 31.2495 6.26693 30.8782C5.77177 30.5068 5.36945 30.0426 5.05997 29.4855C4.75049 28.9285 4.53386 28.3095 4.41007 27.6287H1.62477C1.25339 27.6287 0.928442 27.4894 0.649912 27.2109C0.371382 26.9323 0.232117 26.6074 0.232117 26.236V16.766C0.232117 16.3946 0.371382 16.0697 0.649912 15.7911C0.928442 15.5126 1.25339 15.3733 1.62477 15.3733H4.03869V1.53968C4.03869 1.10641 4.17796 0.765985 4.45649 0.518402C4.73502 0.270821 5.05997 0.14703 5.43134 0.14703H15.6441C16.0155 0.14703 16.3404 0.270821 16.619 0.518402C16.8975 0.765985 17.0368 1.10641 17.0368 1.53968V6.18185H23.4429C23.8143 6.18185 24.1393 6.32111 24.4178 6.59964C24.6963 6.87817 24.8356 7.23407 24.8356 7.66734V15.3733H28.5493V5.34626C28.5493 4.91299 28.6886 4.55709 28.9671 4.27856C29.2457 4.00003 29.5706 3.86076 29.942 3.86076H40.9903C41.4236 3.86076 41.795 4.0774 42.1045 4.51067L47.5822 12.031ZM45.0754 15.3733V13.3308L43.6828 11.4739C43.6209 11.4739 43.559 11.4739 43.4971 11.4739H38.0193V15.3733H45.0754ZM22.0503 9.05999H17.0368V15.3733H22.0503V9.05999ZM6.91684 2.93233V15.3733H14.2515V2.93233H6.91684ZM3.01742 18.2515V24.8434H4.59575C4.96713 23.7292 5.6325 22.8472 6.59188 22.1973C7.55127 21.5474 8.61896 21.2225 9.79498 21.2225C10.971 21.2225 12.0232 21.5474 12.9517 22.1973C13.8801 22.8472 14.5609 23.7292 14.9942 24.8434H28.5493V18.2515H3.01742ZM7.79885 28.3714C7.79885 28.3714 7.93038 28.5261 8.19343 28.8356C8.45649 29.1451 8.99034 29.2998 9.79498 29.2998C10.5996 29.2998 11.265 28.9904 11.7911 28.3714C12.3172 27.7524 12.5184 27.0406 12.3946 26.236C12.3327 25.617 12.0387 25.0909 11.5126 24.6577C10.9865 24.2244 10.4139 24.0078 9.79498 24.0078C9.17602 24.0078 8.60349 24.2244 8.07738 24.6577C7.55127 25.0909 7.25726 25.617 7.19537 26.236C7.07157 27.0406 7.27274 27.7524 7.79885 28.3714ZM36.2089 28.3714C36.2089 28.3714 36.3404 28.5261 36.6035 28.8356C36.8665 29.1451 37.4004 29.2998 38.205 29.2998C39.0097 29.2998 39.6751 28.9904 40.2012 28.3714C40.7273 27.7524 40.9284 27.0406 40.8046 26.236C40.7428 25.8646 40.588 25.4933 40.3404 25.1219C40.0928 24.7505 39.7834 24.472 39.412 24.2863C39.0406 24.1006 38.6383 24.0078 38.205 24.0078C37.5861 24.0078 37.0135 24.2244 36.4874 24.6577C35.9613 25.0909 35.6673 25.617 35.6054 26.236C35.4816 27.0406 35.6828 27.7524 36.2089 28.3714ZM43.4043 24.8434H45.0754V18.2515H36.5339C36.1625 18.2515 35.8375 18.1122 35.559 17.8337C35.2805 17.5552 35.1412 17.1993 35.1412 16.766V9.98842C35.1412 9.74084 35.2031 9.50873 35.3269 9.2921C35.4507 9.07546 35.6209 8.90525 35.8375 8.78146C36.0542 8.65767 36.2863 8.59577 36.5339 8.59577H41.6402L40.2476 6.7389H31.3346V24.8434H33.0058C33.4391 23.7292 34.1199 22.8472 35.0484 22.1973C35.9768 21.5474 37.029 21.2225 38.205 21.2225C39.3811 21.2225 40.4487 21.5474 41.4081 22.1973C42.3675 22.8472 43.0329 23.7292 43.4043 24.8434Z" fill="#FF8B00"/>
</svg>
